<svg xmlns="http://www.w3.org/2000/svg" version="1.1" xmlns:xlink="http://www.w3.org/1999/xlink" xmlns:svgjs="http://svgjs.dev/svgjs" width="1500" height="507" viewBox="0 0 1500 507"><g transform="matrix(1,0,0,1,-0.9090909090909918,-0.5119960723717725)"><svg viewBox="0 0 396 134" data-background-color="#ffffff" preserveAspectRatio="xMidYMid meet" height="507" width="1500" xmlns="http://www.w3.org/2000/svg" xmlns:xlink="http://www.w3.org/1999/xlink"><g id="tight-bounds" transform="matrix(1,0,0,1,0.2400000000000091,0.1353204609424381)"><svg viewBox="0 0 395.52 133.72935907811515" height="133.72935907811515" width="395.52"><g><svg viewBox="0 0 668.8215977634674 226.13542578506633" height="133.72935907811515" width="395.52"><g transform="matrix(1,0,0,1,273.3015977634674,63.119632636173925)"><svg viewBox="0 0 395.52 99.89616051271848" height="99.89616051271848" width="395.52"><g id="textblocktransform"><svg viewBox="0 0 395.52 99.89616051271848" height="99.89616051271848" width="395.52" id="textblock"><g><svg viewBox="0 0 395.52 99.89616051271848" height="99.89616051271848" width="395.52"><g transform="matrix(1,0,0,1,0,0)"><svg width="395.52" viewBox="1.0833333333333335 -39.55 168.64666666666665 42.599999999999994" height="99.89616051271848" data-palette-color="#000000"><path d="M18.05-1.7L18.05-1.7Q17.4-1.5 16.4-1.38 15.4-1.25 14.35-1.2L14.35-1.2Q14.6-9.25 14.15-18.4 13.7-27.55 12.6-35.3L12.6-35.3Q10.05-35.05 7.33-34.68 4.6-34.3 1.45-33.85L1.45-33.85Q1.25-34.7 1.15-35.55 1.05-36.4 1.1-37.1L1.1-37.1Q8.6-38.35 14.43-38.9 20.25-39.45 27.7-39.55L27.7-39.55Q27.85-39.2 27.93-38.75 28-38.3 28.05-37.75L28.05-37.75Q28.05-37.55 28.05-37.3 28.05-37.05 27.95-36.1L27.95-36.1Q24.95-36.05 22.3-35.95 19.65-35.85 17.05-35.65L17.05-35.65Q17.7-29.15 18-23.43 18.3-17.7 18.3-11.5L18.3-11.5Q18.3-9.35 18.25-6.95 18.2-4.55 18.05-1.7ZM44.75-17.05L44.75-17.05Q44.75-13.75 43.85-8.3 42.95-2.85 41.7 1.7L41.7 1.7Q40.95 1.7 40.1 1.55 39.25 1.4 38.45 1.15L38.45 1.15Q38.5 0.95 38.55 0.68 38.6 0.4 38.75-0.05L38.75-0.05Q38.9-0.85 39-1.23 39.1-1.6 39.15-1.9L39.15-1.9Q38.1-1.15 36.77-0.75 35.45-0.35 33.95-0.35L33.95-0.35Q30.55-0.35 28.45-2.18 26.35-4 26.35-7L26.35-7Q26.35-10.25 29.1-11.95 31.85-13.65 37.2-13.65L37.2-13.65Q38-13.65 38.75-13.63 39.5-13.6 40.75-13.55L40.75-13.55Q40.8-14.05 40.8-14.65 40.8-15.25 40.8-16.55L40.8-16.55Q40.8-20.55 39.82-22.35 38.85-24.15 36.6-24.15L36.6-24.15Q34.3-24.15 32.75-22.13 31.2-20.1 31.1-17L31.1-17Q29.7-17.2 28.85-17.68 28-18.15 27.55-18.95L27.55-18.95Q28.15-22.25 30.87-24.55 33.6-26.85 37.1-26.85L37.1-26.85Q40.9-26.85 42.82-24.38 44.75-21.9 44.75-17.05ZM30.3-6.9L30.3-6.9Q30.3-5.05 31.5-3.98 32.7-2.9 34.65-2.9L34.65-2.9Q36.05-2.9 37.32-3.33 38.6-3.75 39.7-4.6L39.7-4.6Q40.1-6.65 40.32-8.25 40.55-9.85 40.65-11.45L40.65-11.45Q35.5-11.75 32.9-10.63 30.3-9.5 30.3-6.9ZM68-15L68-15Q68-7.4 64.87-2.85 61.74 1.7 56.64 1.7L56.64 1.7Q54.89 1.7 53.45 1.15 51.99 0.6 50.7-0.55L50.7-0.55Q50.55-3.3 50.45-7.1 50.34-10.9 50.34-15.95L50.34-15.95Q50.34-21.45 50.59-26.93 50.84-32.4 51.24-35.65L51.24-35.65Q51.8-35.85 52.47-35.95 53.14-36.05 53.99-36.05L53.99-36.05Q54.39-36.05 54.74-36 55.09-35.95 55.8-35.8L55.8-35.8Q55.34-33.05 54.95-29.53 54.55-26 54.24-21.8L54.24-21.8Q55.49-23.7 57.14-24.63 58.8-25.55 60.89-25.55L60.89-25.55Q64.34-25.55 66.17-22.85 68-20.15 68-15ZM53.95-2.2L53.95-2.2Q54.55-1.65 55.3-1.4 56.05-1.15 56.89-1.15L56.89-1.15Q60.3-1.15 62.14-4.85 64-8.55 64-15.2L64-15.2Q64-18.95 62.89-20.83 61.8-22.7 59.59-22.7L59.59-22.7Q57.99-22.7 56.47-21.08 54.95-19.45 53.99-16.65L53.99-16.65Q53.95-15.05 53.89-13.5 53.84-11.95 53.84-10.5L53.84-10.5Q53.84-6.5 53.87-4.95 53.89-3.4 53.95-2.2ZM76.84 2.65L76.84 2.65Q76.34 2.8 75.27 2.93 74.19 3.05 73.44 3.05L73.44 3.05Q72.64-8.1 72.52-17.43 72.39-26.75 72.94-36.5L72.94-36.5Q73.44-36.75 74.07-36.93 74.69-37.1 75.29-37.1L75.29-37.1Q75.79-37.1 76.27-37.02 76.74-36.95 77.29-36.8L77.29-36.8Q76.49-29.05 76.37-18.48 76.24-7.9 76.84 2.65ZM85.84-15.65L85.84-15.65Q87.29-15.15 88.97-14.88 90.64-14.6 92.49-14.6L92.49-14.6Q92.99-14.6 93.67-14.65 94.34-14.7 94.64-14.8L94.64-14.8Q95.04-16.25 95.22-17.48 95.39-18.7 95.39-19.7L95.39-19.7Q95.39-21.9 94.67-22.85 93.94-23.8 92.34-23.8L92.34-23.8Q90.24-23.8 88.49-21.55 86.74-19.3 85.84-15.65ZM96.99-8.5L96.99-8.5Q97.79-8.35 98.62-7.9 99.44-7.45 100.04-6.85L100.04-6.85Q99.09-4 96.17-1.73 93.24 0.55 90.09 0.55L90.09 0.55Q86.04 0.55 83.72-2.6 81.39-5.75 81.39-11.05L81.39-11.05Q81.39-17 84.72-21.75 88.04-26.5 92.64-26.5L92.64-26.5Q95.59-26.5 97.32-24.63 99.04-22.75 99.04-19.55L99.04-19.55Q99.04-17.85 98.72-16.13 98.39-14.4 97.84-12.85L97.84-12.85Q96.84-12.5 95.42-12.33 93.99-12.15 91.89-12.15L91.89-12.15Q90.29-12.15 88.62-12.43 86.94-12.7 85.39-13.25L85.39-13.25Q85.29-12.65 85.27-12.08 85.24-11.5 85.24-10.95L85.24-10.95Q85.24-7 86.62-4.58 87.99-2.15 90.29-2.15L90.29-2.15Q92.29-2.15 94.29-4.03 96.29-5.9 96.99-8.5ZM128.34-12.95L128.34-12.95Q128.34-7.15 123.81-3.08 119.29 1 112.79 1L112.79 1Q110.99 1 109.14 0.5 107.29 0 105.99-0.8L105.99-0.8Q105.59-9.15 105.44-14.78 105.29-20.4 105.29-26.9L105.29-26.9Q105.29-27.5 105.29-28.18 105.29-28.85 105.29-30.3L105.29-30.3Q105.24-32.1 105.24-33.1 105.24-34.1 105.24-35.05L105.24-35.05Q107.29-36 109.59-36.5 111.89-37 114.24-37L114.24-37Q119.74-37 122.79-34.85 125.84-32.7 125.84-28.85L125.84-28.85Q125.84-26.2 124.39-24.2 122.94-22.2 120.09-20.85L120.09-20.85Q124.14-20.25 126.24-18.23 128.34-16.2 128.34-12.95ZM121.84-28.4L121.84-28.4Q121.84-31.2 119.89-32.73 117.94-34.25 114.29-34.25L114.29-34.25Q113.14-34.25 111.94-34.08 110.74-33.9 109.54-33.6L109.54-33.6Q109.29-30.75 109.19-27.68 109.09-24.6 109.09-20.3L109.09-20.3Q115.69-20.9 118.76-22.83 121.84-24.75 121.84-28.4ZM109.39-2.65L109.39-2.65Q110.29-2.25 111.29-2.02 112.29-1.8 113.29-1.8L113.29-1.8Q117.79-1.8 121.04-4.85 124.29-7.9 124.29-12L124.29-12Q124.29-15.3 122.39-16.93 120.49-18.55 116.59-18.55L116.59-18.55Q114.89-18.55 112.79-18.18 110.69-17.8 109.09-17.2L109.09-17.2Q109.09-16.15 109.09-15.08 109.09-14 109.09-12.9L109.09-12.9Q109.09-9.9 109.16-7.48 109.24-5.05 109.39-2.65ZM150.09-17.05L150.09-17.05Q150.09-13.75 149.19-8.3 148.29-2.85 147.04 1.7L147.04 1.7Q146.29 1.7 145.44 1.55 144.59 1.4 143.79 1.15L143.79 1.15Q143.84 0.95 143.89 0.68 143.94 0.4 144.09-0.05L144.09-0.05Q144.24-0.85 144.34-1.23 144.44-1.6 144.49-1.9L144.49-1.9Q143.44-1.15 142.11-0.75 140.79-0.35 139.29-0.35L139.29-0.35Q135.89-0.35 133.79-2.18 131.69-4 131.69-7L131.69-7Q131.69-10.25 134.44-11.95 137.19-13.65 142.54-13.65L142.54-13.65Q143.34-13.65 144.09-13.63 144.84-13.6 146.09-13.55L146.09-13.55Q146.14-14.05 146.14-14.65 146.14-15.25 146.14-16.55L146.14-16.55Q146.14-20.55 145.16-22.35 144.19-24.15 141.94-24.15L141.94-24.15Q139.64-24.15 138.09-22.13 136.54-20.1 136.44-17L136.44-17Q135.04-17.2 134.19-17.68 133.34-18.15 132.89-18.95L132.89-18.95Q133.49-22.25 136.21-24.55 138.94-26.85 142.44-26.85L142.44-26.85Q146.24-26.85 148.16-24.38 150.09-21.9 150.09-17.05ZM135.64-6.9L135.64-6.9Q135.64-5.05 136.84-3.98 138.04-2.9 139.99-2.9L139.99-2.9Q141.39-2.9 142.66-3.33 143.94-3.75 145.04-4.6L145.04-4.6Q145.44-6.65 145.66-8.25 145.89-9.85 145.99-11.45L145.99-11.45Q140.84-11.75 138.24-10.63 135.64-9.5 135.64-6.9ZM160.33 0.1L160.33 0.1Q159.93 0.25 159.38 0.35 158.83 0.45 158.28 0.45L158.28 0.45Q157.88 0.5 157.56 0.45 157.23 0.4 156.93 0.3L156.93 0.3Q155.68-6.05 155.26-13 154.83-19.95 155.18-27L155.18-27Q155.53-27.15 156.03-27.23 156.53-27.3 157.53-27.3L157.53-27.3Q158.03-27.3 158.51-27.23 158.98-27.15 159.48-27L159.48-27Q159.18-24.85 159.03-23.35 158.88-21.85 158.83-20.5L158.83-20.5Q159.98-24.4 161.88-26.65 163.78-28.9 165.83-28.9L165.83-28.9Q167.83-28.9 168.78-27.43 169.73-25.95 169.73-22.9L169.73-22.9Q169.73-22.3 169.68-21.6 169.63-20.9 169.58-20.1L169.58-20.1Q168.98-19.95 168.16-19.88 167.33-19.8 166.38-19.85L166.38-19.85Q166.48-20.6 166.53-21.28 166.58-21.95 166.58-22.6L166.58-22.6Q166.58-24.2 166.18-24.98 165.78-25.75 164.98-25.75L164.98-25.75Q163.28-25.75 161.58-22.18 159.88-18.6 158.88-12.9L158.88-12.9Q159.03-10.05 159.38-6.83 159.73-3.6 160.33 0.1Z" opacity="1" transform="matrix(1,0,0,1,0,0)" fill="#000000" class="wordmark-text-0" data-fill-palette-color="primary" id="text-0"></path></svg></g></svg></g></svg></g></svg></g><g><svg viewBox="0 0 226.13542578506633 226.13542578506633" height="226.13542578506633" width="226.13542578506633"><g><svg></svg></g><g id="icon-0"><svg viewBox="0 0 226.13542578506633 226.13542578506633" height="226.13542578506633" width="226.13542578506633"><g><path d="M0 113.068c0-62.446 50.622-113.068 113.068-113.068 62.446 0 113.068 50.622 113.067 113.068 0 62.446-50.622 113.068-113.067 113.067-62.446 0-113.068-50.622-113.068-113.067zM113.068 217.127c57.47 0 104.059-46.589 104.059-104.059 0-57.47-46.589-104.059-104.059-104.059-57.47 0-104.059 46.589-104.059 104.059 0 57.47 46.589 104.059 104.059 104.059z" data-fill-palette-color="accent" fill="#f84e45" stroke="transparent"></path></g><g transform="matrix(1,0,0,1,48.73332305619749,66.82963516866329)"><svg viewBox="0 0 128.66877967267135 92.47615544773976" height="92.47615544773976" width="128.66877967267135"><g><svg xmlns="http://www.w3.org/2000/svg" xmlns:xlink="http://www.w3.org/1999/xlink" version="1.1" x="0" y="0" viewBox="18.488 27.352 63.025000170197345 45.297" enable-background="new 0 0 100 100" xml:space="preserve" height="92.47615544773976" width="128.66877967267135" class="icon-dxe-0" data-fill-palette-color="accent" id="dxe-0"><path d="M34.582 71.146H31.724A6.53 6.53 0 0 0 27.593 69V60.832C29.877 60.47 31.633 58.503 31.633 56.118V44.958A0.75 0.75 0 0 0 30.883 44.208H22.803A0.75 0.75 0 0 0 22.053 44.958V56.12C22.053 58.505 23.809 60.473 26.093 60.834V69.001A6.52 6.52 0 0 0 21.961 71.147H19.238A0.75 0.75 0 0 0 19.238 72.647H31.383L31.388 72.649 31.394 72.647H34.582A0.75 0.75 0 0 0 34.582 71.146M25.957 55.832A0.75 0.75 0 0 1 24.457 55.832V51.751A0.75 0.75 0 0 1 25.957 51.751zM23.553 48.584V45.709H30.133V48.584zM24.301 71.146A5.04 5.04 0 0 1 29.382 71.146zM59.507 33.708A2.527 2.527 0 0 0 62.031 31.184C62.031 30.072 61.146 27.352 59.507 27.352S56.983 30.072 56.983 31.184A2.527 2.527 0 0 0 59.507 33.708M59.498 28.851C59.853 28.932 60.531 30.339 60.531 31.184 60.531 31.748 60.07 32.208 59.507 32.208S58.483 31.748 58.483 31.184C58.482 30.339 59.16 28.932 59.498 28.851M62.508 48.584H62.215V35.215A0.75 0.75 0 0 0 61.465 34.465H57.549A0.75 0.75 0 0 0 56.799 35.215V48.584H56.506A0.75 0.75 0 0 0 56.506 50.084H58.721C58.36 54.352 54.951 57.758 50.684 58.12V50.084H52.934A0.75 0.75 0 0 0 52.934 48.584H52.641V35.215A0.75 0.75 0 0 0 51.891 34.465H47.975A0.75 0.75 0 0 0 47.225 35.215V48.584H46.932A0.75 0.75 0 0 0 46.932 50.084H49.184V58.12A8.83 8.83 0 0 1 41.147 50.084H43.36A0.75 0.75 0 0 0 43.36 48.584H43.067V35.215A0.75 0.75 0 0 0 42.317 34.465H38.4A0.75 0.75 0 0 0 37.65 35.215V48.584H37.357A0.75 0.75 0 0 0 37.357 50.084H39.646C40.015 55.178 44.089 59.252 49.183 59.62V67.855A9.53 9.53 0 0 0 42.676 71.146H39.103A0.75 0.75 0 0 0 39.103 72.646H56.848L56.852 72.648 56.858 72.646H60.762A0.75 0.75 0 0 0 60.762 71.146H57.188A9.54 9.54 0 0 0 50.684 67.855V59.62C55.778 59.251 59.85 55.178 60.219 50.084H62.507A0.75 0.75 0 0 0 62.508 48.584M39.15 38.381L41.566 35.965V39.496L39.15 41.913zM39.15 48.584V45.052L41.566 42.636V46.167zM48.725 38.381L51.141 35.965V39.496L48.725 41.913zM55.057 71.146H44.807A8.05 8.05 0 0 1 49.932 69.314 8.06 8.06 0 0 1 55.057 71.146M48.725 48.584V45.052L51.141 42.636V46.167zM60.715 46.167L58.299 48.583V45.05L60.715 42.635zM60.715 39.496L58.299 41.912V38.38L60.715 35.965zM49.933 33.708A2.527 2.527 0 0 0 52.457 31.184C52.457 30.072 51.572 27.352 49.933 27.352S47.409 30.072 47.409 31.184A2.527 2.527 0 0 0 49.933 33.708M49.924 28.851C50.279 28.932 50.957 30.339 50.957 31.184 50.957 31.748 50.497 32.208 49.933 32.208S48.909 31.748 48.909 31.184C48.908 30.339 49.586 28.932 49.924 28.851M40.358 33.708A2.527 2.527 0 0 0 42.882 31.184C42.882 30.072 41.997 27.352 40.358 27.352S37.834 30.072 37.834 31.184A2.53 2.53 0 0 0 40.358 33.708M40.35 28.851C40.705 28.932 41.383 30.339 41.383 31.184 41.383 31.748 40.923 32.208 40.359 32.208S39.335 31.748 39.335 31.184C39.334 30.339 40.012 28.932 40.35 28.851M80.762 71.146H77.905A6.53 6.53 0 0 0 73.774 69V60.832C76.057 60.47 77.815 58.503 77.815 56.118V44.958A0.75 0.75 0 0 0 77.065 44.208H68.983A0.75 0.75 0 0 0 68.233 44.958V56.12C68.233 58.505 69.989 60.473 72.274 60.834V69.001A6.52 6.52 0 0 0 68.141 71.147H65.418A0.75 0.75 0 0 0 65.418 72.647H77.563L77.569 72.649 77.575 72.647H80.763A0.75 0.75 0 1 0 80.762 71.146M72.137 55.832A0.75 0.75 0 0 1 70.637 55.832V51.751A0.75 0.75 0 0 1 72.137 51.751zM69.732 48.584V45.709H76.312V48.584zM70.48 71.146A5.04 5.04 0 0 1 75.56 71.146z" fill="#f84e45" data-fill-palette-color="accent"></path></svg></g></svg></g></svg></g></svg></g></svg></g><defs></defs></svg><rect width="395.52" height="133.72935907811515" fill="none" stroke="none" visibility="hidden"></rect></g></svg></g></svg>